<?xml version="1.0" encoding="UTF-8"?>
<!DOCTYPE svg PUBLIC "-//W3C//DTD SVG 1.1//EN" "http://www.w3.org/Graphics/SVG/1.1/DTD/svg11.dtd">
<svg xmlns="http://www.w3.org/2000/svg" version="1.1" width="250px" height="250px" style="shape-rendering:geometricPrecision; text-rendering:geometricPrecision; image-rendering:optimizeQuality; fill-rule:evenodd; clip-rule:evenodd" xmlns:xlink="http://www.w3.org/1999/xlink">
<g><path style="opacity:0.932" fill="#7ab63a" d="M 134.5,39.5 C 134.5,38.8333 134.167,38.5 133.5,38.5C 133.167,38.5 132.833,38.5 132.5,38.5C 131.697,37.5768 131.53,36.5768 132,35.5C 134.372,33.2968 136.539,30.9635 138.5,28.5C 134.916,30.7394 131.583,33.4061 128.5,36.5C 127.699,32.0552 128.866,28.0552 132,24.5C 141.081,14.5385 152.248,8.03848 165.5,5C 186.967,0.561097 208.633,-0.60557 230.5,1.5C 223.466,3.5181 216.8,6.35143 210.5,10C 197.593,18.9037 185.26,28.5703 173.5,39C 171.5,40 169.5,41 167.5,42C 159.913,43.5625 152.246,43.8959 144.5,43C 140.961,42.3208 137.628,41.1542 134.5,39.5 Z M 146.5,22.5 C 146.027,23.9063 145.027,24.573 143.5,24.5C 143.973,23.0937 144.973,22.427 146.5,22.5 Z M 142.5,25.5 C 141.738,27.2624 140.404,28.2624 138.5,28.5C 139.262,26.7376 140.596,25.7376 142.5,25.5 Z"/></g>
<g><path style="opacity:0.903" fill="#7ab63a" d="M 79.5,7.5 C 93.1598,9.89323 102.993,17.2266 109,29.5C 110.043,32.7568 110.543,36.0901 110.5,39.5C 92.7243,36.0574 82.391,25.3908 79.5,7.5 Z"/></g>
<g><path style="opacity:0.969" fill="#f4a424" d="M 132.5,38.5 C 132.833,38.5 133.167,38.5 133.5,38.5C 134.167,38.5 134.5,38.8333 134.5,39.5C 140.261,49.5413 148.928,53.3746 160.5,51C 163.132,50.5506 165.632,49.7173 168,48.5C 173.803,50.7331 179.136,53.7331 184,57.5C 184.87,65.4616 188.036,72.2949 193.5,78C 199.221,80.7124 205.055,82.8791 211,84.5C 214.033,89.3717 216.867,94.3717 219.5,99.5C 212.52,113.913 215.687,125.58 229,134.5C 229.667,141.167 229.667,147.833 229,154.5C 215.713,163.597 212.546,175.43 219.5,190C 217.052,195.064 214.218,199.897 211,204.5C 204.607,206.314 198.44,208.814 192.5,212C 187.731,217.634 184.898,224.134 184,231.5C 179.397,235.764 174.063,238.764 168,240.5C 154.173,234.284 143.006,237.284 134.5,249.5C 126.833,249.5 119.167,249.5 111.5,249.5C 106.246,240.235 98.2461,236.401 87.5,238C 84.331,238.834 81.1643,239.668 78,240.5C 72.2419,238.287 66.9086,235.287 62,231.5C 60.6667,215.5 52,206.833 36,205.5C 32.3855,200.606 29.5522,195.272 27.5,189.5C 33.8533,175.607 30.8533,164.273 18.5,155.5C 17.3356,148.524 17.1689,141.524 18,134.5C 30.6033,125.509 33.7699,113.842 27.5,99.5C 29.6608,93.678 32.6608,88.3447 36.5,83.5C 52.1291,81.8709 60.7958,73.2042 62.5,57.5C 67.2883,53.8851 72.4549,50.8851 78,48.5C 92.0427,54.8833 103.543,51.8833 112.5,39.5C 119.134,38.5033 125.8,38.17 132.5,38.5 Z"/></g>
<g><path style="opacity:1" fill="#fffdfb" d="M 145.5,74.5 C 138.403,94.959 131.57,115.626 125,136.5C 122.226,137.764 120.726,136.764 120.5,133.5C 113.8,112.567 106.8,91.734 99.5,71C 112.937,59.403 127.27,58.403 142.5,68C 144.061,68.941 145.395,70.1076 146.5,71.5C 145.873,72.4168 145.539,73.4168 145.5,74.5 Z"/></g>
<g><path style="opacity:1" fill="#fffdfb" d="M 119.5,134.5 C 121.109,137.726 120.109,139.226 116.5,139C 97.9808,125.246 79.3141,111.746 60.5,98.5C 65.7073,79.057 78.374,70.2237 98.5,72C 105.424,92.9404 112.424,113.774 119.5,134.5 Z"/></g>
<g><path style="opacity:1" fill="#fffdfb" d="M 182.5,101.5 C 164.128,114.113 145.961,127.113 128,140.5C 126.56,139.07 126.226,137.403 127,135.5C 133.409,115.44 139.909,95.4402 146.5,75.5C 147.038,73.8828 147.371,72.2161 147.5,70.5C 165.173,70.0887 177.34,78.0887 184,94.5C 184.833,97.171 184.333,99.5043 182.5,101.5 Z"/></g>
<g><path style="opacity:1" fill="#fffefc" d="M 60.5,99.5 C 78.9207,113.556 97.5873,127.39 116.5,141C 116.043,141.414 115.709,141.914 115.5,142.5C 92.1762,143.5 68.8429,143.833 45.5,143.5C 38.5019,124.814 43.5019,110.148 60.5,99.5 Z"/></g>
<g><path style="opacity:1" fill="#fffefd" d="M 200.5,143.5 C 176.833,143.5 153.167,143.5 129.5,143.5C 129.921,141.09 131.254,139.257 133.5,138C 150.349,125.97 167.015,113.803 183.5,101.5C 184.482,100.859 185.482,100.193 186.5,99.5C 203.004,110.346 207.67,125.012 200.5,143.5 Z"/></g>
<g><path style="opacity:1" fill="#f5b35e" d="M 112.5,140.5 C 106.021,141.491 99.3543,141.824 92.5,141.5C 89.218,136.562 90.218,132.562 95.5,129.5C 101.025,133.426 106.691,137.093 112.5,140.5 Z"/></g>
<g><path style="opacity:1" fill="#f5b35f" d="M 154.5,141.5 C 147.646,141.824 140.979,141.491 134.5,140.5C 139.648,137.087 144.648,133.42 149.5,129.5C 155.321,131.722 156.988,135.722 154.5,141.5 Z"/></g>
<g><path style="opacity:1" fill="#f5a83c" d="M 145.5,74.5 C 145.5,75.1667 145.833,75.5 146.5,75.5C 139.909,95.4402 133.409,115.44 127,135.5C 126.226,137.403 126.56,139.07 128,140.5C 145.961,127.113 164.128,114.113 182.5,101.5C 182.833,101.5 183.167,101.5 183.5,101.5C 167.015,113.803 150.349,125.97 133.5,138C 131.254,139.257 129.921,141.09 129.5,143.5C 153.167,143.5 176.833,143.5 200.5,143.5C 177.167,144.167 153.833,144.833 130.5,145.5C 129.215,147.806 129.882,149.639 132.5,151C 150.657,163.664 168.657,176.498 186.5,189.5C 186.5,190.167 186.167,190.5 185.5,190.5C 168.019,178.254 150.686,165.754 133.5,153C 130.798,149.618 128.465,149.785 126.5,153.5C 133.907,174.721 140.907,196.054 147.5,217.5C 147.167,217.5 146.833,217.5 146.5,217.5C 139.403,197.041 132.57,176.374 126,155.5C 124.688,153.342 123.022,153.009 121,154.5C 113.451,175.977 106.618,197.644 100.5,219.5C 99.8333,219.167 99.1667,218.833 98.5,218.5C 105.574,197.042 112.574,175.542 119.5,154C 118.362,151.955 116.695,151.288 114.5,152C 97.2881,164.719 79.9548,177.219 62.5,189.5C 62.1667,189.5 61.8333,189.5 61.5,189.5C 79.1946,175.813 97.1946,162.479 115.5,149.5C 116.363,150.463 117.03,150.463 117.5,149.5C 116.926,147.941 116.26,146.441 115.5,145C 91.9964,144.832 68.6631,144.332 45.5,143.5C 68.8429,143.833 92.1762,143.5 115.5,142.5C 115.709,141.914 116.043,141.414 116.5,141C 97.5873,127.39 78.9207,113.556 60.5,99.5C 60.5,99.1667 60.5,98.8333 60.5,98.5C 79.3141,111.746 97.9808,125.246 116.5,139C 120.109,139.226 121.109,137.726 119.5,134.5C 119.5,133.833 119.833,133.5 120.5,133.5C 120.726,136.764 122.226,137.764 125,136.5C 131.57,115.626 138.403,94.959 145.5,74.5 Z"/></g>
<g><path style="opacity:1" fill="#f6b563" d="M 135.5,116.5 C 141.295,115.137 144.961,117.304 146.5,123C 141.019,128.137 135.186,132.971 129,137.5C 130.638,130.414 132.805,123.414 135.5,116.5 Z"/></g>
<g><path style="opacity:1" fill="#f6b461" d="M 103.5,116.5 C 106.119,116.232 108.619,116.565 111,117.5C 113.83,123.793 115.664,130.127 116.5,136.5C 111.243,132.621 106.076,128.621 101,124.5C 100.018,121.225 100.851,118.559 103.5,116.5 Z"/></g>
<g><path style="opacity:1" fill="#f5b35f" d="M 120.5,111.5 C 124.741,110.75 128.074,112.083 130.5,115.5C 128.49,122.031 125.99,128.365 123,134.5C 121.321,128.116 119.488,121.783 117.5,115.5C 118.524,114.148 119.524,112.815 120.5,111.5 Z"/></g>
<g><path style="opacity:1" fill="#fad6a9" d="M 112.5,140.5 C 113.043,140.56 113.376,140.893 113.5,141.5C 106.344,142.819 99.344,142.819 92.5,141.5C 99.3543,141.824 106.021,141.491 112.5,140.5 Z"/></g>
<g><path style="opacity:1" fill="#f8c789" d="M 134.5,140.5 C 140.979,141.491 147.646,141.824 154.5,141.5C 147.345,142.655 140.012,142.822 132.5,142C 133.044,141.283 133.711,140.783 134.5,140.5 Z"/></g>
<g><path style="opacity:1" fill="#fffefc" d="M 115.5,149.5 C 97.1946,162.479 79.1946,175.813 61.5,189.5C 48.6554,183.846 42.322,173.846 42.5,159.5C 42.1648,154.68 43.1648,150.18 45.5,146C 68.4976,145.5 91.4976,145.333 114.5,145.5C 114.433,146.959 114.766,148.292 115.5,149.5 Z"/></g>
<g><path style="opacity:1" fill="#fffdfc" d="M 130.5,145.5 C 153.836,145.333 177.169,145.5 200.5,146C 207.177,164.147 202.51,178.647 186.5,189.5C 168.657,176.498 150.657,163.664 132.5,151C 129.882,149.639 129.215,147.806 130.5,145.5 Z"/></g>
<g><path style="opacity:1" fill="#f9cd96" d="M 90.5,148.5 C 97.6549,147.345 104.988,147.178 112.5,148C 111.956,148.717 111.289,149.217 110.5,149.5C 104.021,148.509 97.3543,148.176 90.5,148.5 Z"/></g>
<g><path style="opacity:1" fill="#f8c584" d="M 154.5,148.5 C 147.646,148.176 140.979,148.509 134.5,149.5C 133.957,149.44 133.624,149.107 133.5,148.5C 140.656,147.181 147.656,147.181 154.5,148.5 Z"/></g>
<g><path style="opacity:1" fill="#f5b35f" d="M 90.5,148.5 C 97.3543,148.176 104.021,148.509 110.5,149.5C 105.352,152.913 100.352,156.58 95.5,160.5C 89.6983,158.241 88.0317,154.241 90.5,148.5 Z"/></g>
<g><path style="opacity:1" fill="#f5b35e" d="M 134.5,149.5 C 140.979,148.509 147.646,148.176 154.5,148.5C 156.712,153.698 155.378,157.698 150.5,160.5C 145.149,156.808 139.815,153.141 134.5,149.5 Z"/></g>
<g><path style="opacity:1" fill="#fffdfb" d="M 185.5,190.5 C 180.348,210.387 167.682,219.387 147.5,217.5C 140.907,196.054 133.907,174.721 126.5,153.5C 128.465,149.785 130.798,149.618 133.5,153C 150.686,165.754 168.019,178.254 185.5,190.5 Z"/></g>
<g><path style="opacity:1" fill="#fffdfb" d="M 98.5,218.5 C 79.3564,219.191 67.0231,210.358 61.5,192C 61.7432,191.098 62.0766,190.265 62.5,189.5C 79.9548,177.219 97.2881,164.719 114.5,152C 116.695,151.288 118.362,151.955 119.5,154C 112.574,175.542 105.574,197.042 98.5,218.5 Z"/></g>
<g><path style="opacity:1" fill="#fffdfc" d="M 146.5,217.5 C 140.386,224.464 132.553,227.797 123,227.5C 114.641,227.237 107.141,224.57 100.5,219.5C 106.618,197.644 113.451,175.977 121,154.5C 123.022,153.009 124.688,153.342 126,155.5C 132.57,176.374 139.403,197.041 146.5,217.5 Z"/></g>
<g><path style="opacity:1" fill="#f5b460" d="M 129.5,153.5 C 135.122,157.282 140.622,161.282 146,165.5C 146.165,172.675 142.832,175.342 136,173.5C 133.726,166.847 131.56,160.18 129.5,153.5 Z"/></g>
<g><path style="opacity:1" fill="#f5b35e" d="M 114.5,154.5 C 115.239,154.369 115.906,154.536 116.5,155C 114.413,161.174 112.246,167.341 110,173.5C 103.037,176.193 99.7034,173.86 100,166.5C 105.315,163.013 110.148,159.013 114.5,154.5 Z"/></g>
<g><path style="opacity:1" fill="#f6b562" d="M 122.5,155.5 C 125.614,161.403 127.614,167.903 128.5,175C 127.892,178.156 125.892,179.656 122.5,179.5C 119.292,179.292 117.292,177.626 116.5,174.5C 118.799,168.242 120.799,161.909 122.5,155.5 Z"/></g>
</svg>
